<svg width="80" height="80" viewBox="0 0 80 80" fill="none" xmlns="http://www.w3.org/2000/svg">
<path d="M13.1279 26.8768C10.5948 26.8755 8.54164 28.9336 8.54102 31.4649L8.54414 50.6749C8.54373 51.2776 8.66214 51.8746 8.89259 52.4315C9.12304 52.9885 9.46102 53.4945 9.8872 53.9208C10.3134 54.347 10.8194 54.685 11.3763 54.9156C11.9332 55.1461 12.5301 55.2646 13.1329 55.2643C13.7356 55.2649 14.3324 55.1467 14.8893 54.9163C15.4462 54.6859 15.9522 54.3478 16.3782 53.9216C16.8042 53.4953 17.142 52.9892 17.3721 52.4321C17.6022 51.8751 17.7201 51.2782 17.7191 50.6755V31.4624C17.7178 30.2456 17.2335 29.0792 16.3726 28.2193C15.5117 27.3595 14.3446 26.8766 13.1279 26.8768M50.1235 9.62551L53.3254 3.77864C53.407 3.63032 53.4264 3.4557 53.3794 3.29308C53.3324 3.13046 53.2229 2.99311 53.0748 2.91114C52.9264 2.83089 52.7523 2.81259 52.5904 2.86025C52.4286 2.90791 52.2922 3.01765 52.211 3.16551L48.9766 9.07364C46.2554 7.86239 43.2098 7.18364 39.9873 7.18676C36.7735 7.18364 33.7291 7.86051 31.0191 9.06489L27.781 3.17176C27.7415 3.0982 27.6878 3.03322 27.6229 2.98057C27.5581 2.92792 27.4835 2.88866 27.4034 2.86506C27.3233 2.84146 27.2393 2.83399 27.1563 2.84308C27.0733 2.85217 26.9929 2.87764 26.9198 2.91801C26.846 2.95746 26.7808 3.01123 26.728 3.07617C26.6752 3.14112 26.6359 3.21594 26.6124 3.29625C26.5889 3.37656 26.5816 3.46075 26.5911 3.5439C26.6005 3.62706 26.6264 3.70749 26.6673 3.78051L29.8704 9.62364C23.5766 12.8693 19.3241 19.0505 19.3279 26.1474L60.6516 26.1424C60.6529 19.048 56.4079 12.8793 50.1235 9.62551M30.5885 18.6611C30.1289 18.6609 29.6883 18.4781 29.3635 18.1529C29.0387 17.8278 28.8564 17.387 28.8566 16.9274C28.8569 16.4678 29.0397 16.0272 29.3648 15.7024C29.69 15.3776 30.1308 15.1953 30.5904 15.1955C31.05 15.1963 31.4906 15.3792 31.8156 15.7042C32.1407 16.0291 32.3238 16.4696 32.3248 16.9293C32.3239 17.3891 32.1406 17.8298 31.815 18.1545C31.4895 18.4793 31.0483 18.6615 30.5885 18.6611M49.4048 18.658C49.1773 18.6582 48.9519 18.6135 48.7417 18.5265C48.5315 18.4396 48.3405 18.312 48.1796 18.1512C48.0187 17.9903 47.891 17.7993 47.804 17.5891C47.7169 17.3789 47.6722 17.1536 47.6723 16.9261C47.6747 16.467 47.858 16.0272 48.1824 15.7022C48.5068 15.3772 48.9462 15.1932 49.4054 15.1899C49.8642 15.1937 50.303 15.3781 50.6267 15.7032C50.9504 16.0284 51.133 16.468 51.1348 16.9268C51.135 17.1541 51.0904 17.3792 51.0036 17.5893C50.9168 17.7994 50.7894 17.9903 50.6287 18.1511C50.468 18.3118 50.2772 18.4394 50.0672 18.5264C49.8572 18.6134 49.6321 18.6581 49.4048 18.658M19.4966 27.7436L19.5035 57.5155C19.5028 58.1585 19.6289 58.7953 19.8746 59.3895C20.1204 59.9837 20.4809 60.5236 20.9356 60.9782C21.3903 61.4329 21.9302 61.7934 22.5245 62.039C23.1187 62.2847 23.7555 62.4107 24.3985 62.4099L27.7316 62.4111L27.7354 72.5761C27.7348 75.1074 29.7923 77.1649 32.3198 77.1649C34.8548 77.1649 36.9085 75.1055 36.9091 72.573L36.9066 62.4105L43.0998 62.4086L43.1023 72.573C43.1023 75.1024 45.1604 77.1643 47.6885 77.1593C50.2235 77.1611 52.2785 75.1018 52.2779 72.5693L52.2748 62.4074L55.6198 62.4049C56.2628 62.405 56.8996 62.2784 57.4938 62.0324C58.0879 61.7864 58.6278 61.4257 59.0826 60.9711C59.5373 60.5164 59.8981 59.9766 60.1443 59.3825C60.3904 58.7885 60.5172 58.1517 60.5173 57.5086L60.5116 27.7368L19.4966 27.7436V27.7436ZM71.4554 31.458C71.4555 30.8555 71.3368 30.2589 71.1063 29.7023C70.8757 29.1457 70.5377 28.6399 70.1117 28.214C69.6856 27.788 69.1798 27.4502 68.6231 27.2198C68.0664 26.9894 67.4698 26.8709 66.8673 26.8711C64.3341 26.8686 62.2816 28.9255 62.2816 31.4599L62.2854 50.6711C62.285 51.2736 62.4033 51.8703 62.6337 52.4269C62.8641 52.9836 63.2019 53.4895 63.6279 53.9155C64.054 54.3415 64.5598 54.6793 65.1165 54.9097C65.6731 55.1401 66.2698 55.2584 66.8723 55.258C67.4748 55.2581 68.0715 55.1394 68.6282 54.9088C69.1848 54.6781 69.6906 54.34 70.1165 53.9138C70.5425 53.4876 70.8802 52.9816 71.1105 52.4248C71.3407 51.868 71.459 51.2712 71.4585 50.6686L71.4554 31.458Z" fill="#A4C439"/>
</svg>
