<svg width="80" height="80" viewBox="0 0 80 80" fill="none" xmlns="http://www.w3.org/2000/svg">
<g clip-path="url(#clip0_75_476)">
<path d="M22.5455 33.4545C22.5455 34.439 22.6519 35.2372 22.8382 35.8225C23.051 36.4079 23.3171 37.0464 23.6896 37.7382C23.8226 37.9511 23.8758 38.1639 23.8758 38.3502C23.8758 38.6163 23.7162 38.8823 23.3703 39.1484L21.6941 40.2659C21.4546 40.4255 21.2151 40.5054 21.0023 40.5054C20.7362 40.5054 20.4701 40.3723 20.2041 40.1329C19.8316 39.7338 19.5123 39.308 19.2462 38.8823C18.9801 38.43 18.7141 37.9245 18.4214 37.3125C16.346 39.7604 13.7386 40.9843 10.5989 40.9843C8.36393 40.9843 6.58126 40.3457 5.27751 39.0686C3.97377 37.7914 3.30859 36.0886 3.30859 33.96C3.30859 31.6984 4.1068 29.8625 5.72983 28.479C7.35286 27.0954 9.50803 26.4036 12.2486 26.4036C13.1532 26.4036 14.0844 26.4834 15.0689 26.6165C16.0534 26.7495 17.0644 26.9624 18.1287 27.2018V25.2595C18.1287 23.2374 17.703 21.8272 16.8782 21.0024C16.0268 20.1776 14.59 19.7785 12.5412 19.7785C11.61 19.7785 10.6521 19.8849 9.66768 20.1244C8.68322 20.3638 7.72536 20.6565 6.79412 21.029C6.3684 21.2152 6.04912 21.3217 5.86287 21.3749C5.67662 21.4281 5.54358 21.4547 5.43716 21.4547C5.06466 21.4547 4.87841 21.1886 4.87841 20.6299V19.3261C4.87841 18.9004 4.93162 18.5811 5.06466 18.3949C5.19769 18.2086 5.43716 18.0224 5.80966 17.8361C6.7409 17.3572 7.8584 16.9581 9.16214 16.6388C10.4659 16.2929 11.8495 16.1333 13.3128 16.1333C16.4791 16.1333 18.7939 16.8517 20.2839 18.2885C21.7473 19.7252 22.4923 21.907 22.4923 24.8338V33.4545H22.5455ZM11.743 37.4988C12.6211 37.4988 13.5257 37.3391 14.4835 37.0198C15.4414 36.7006 16.2928 36.1152 17.0112 35.317C17.4369 34.8115 17.7562 34.2527 17.9159 33.6141C18.0755 32.9756 18.1819 32.204 18.1819 31.2993V30.1818C17.4103 29.9956 16.5855 29.8359 15.7341 29.7295C14.8827 29.6231 14.0578 29.5699 13.233 29.5699C11.4503 29.5699 10.1466 29.9158 9.26857 30.6341C8.39054 31.3525 7.96483 32.3636 7.96483 33.694C7.96483 34.9445 8.28411 35.8757 8.94929 36.5143C9.58785 37.1795 10.5191 37.4988 11.743 37.4988ZM33.1085 40.3723C32.6295 40.3723 32.3103 40.2925 32.0974 40.1063C31.8846 39.9466 31.6983 39.5741 31.5387 39.0686L25.286 18.5013C25.1264 17.9692 25.0465 17.6233 25.0465 17.437C25.0465 17.0113 25.2594 16.7719 25.6851 16.7719H28.2926C28.7981 16.7719 29.144 16.8517 29.3303 17.0379C29.5431 17.1976 29.7028 17.5701 29.8624 18.0756L34.3324 35.6895L38.4831 18.0756C38.6161 17.5435 38.7758 17.1976 38.9886 17.0379C39.2015 16.8783 39.574 16.7719 40.0529 16.7719H42.1815C42.687 16.7719 43.0329 16.8517 43.2458 17.0379C43.4586 17.1976 43.6449 17.5701 43.7513 18.0756L47.9552 35.9023L52.5582 18.0756C52.7179 17.5435 52.9041 17.1976 53.0904 17.0379C53.3032 16.8783 53.6491 16.7719 54.128 16.7719H56.6025C57.0282 16.7719 57.2677 16.9847 57.2677 17.437C57.2677 17.5701 57.2411 17.7031 57.2144 17.8628C57.1878 18.0224 57.1346 18.2353 57.0282 18.5279L50.6159 39.0952C50.4563 39.6273 50.27 39.9732 50.0572 40.1329C49.8443 40.2925 49.4984 40.3989 49.0461 40.3989H46.7579C46.2523 40.3989 45.9065 40.3191 45.6936 40.1329C45.4807 39.9466 45.2945 39.6007 45.1881 39.0686L41.064 21.907L36.9665 39.042C36.8335 39.5741 36.6738 39.92 36.461 40.1063C36.2481 40.2925 35.8756 40.3723 35.3967 40.3723H33.1085ZM67.2985 41.0907C65.915 41.0907 64.5314 40.9311 63.201 40.6118C61.8707 40.2925 60.833 39.9466 60.1412 39.5475C59.7155 39.308 59.4228 39.042 59.3164 38.8025C59.21 38.563 59.1568 38.297 59.1568 38.0575V36.7006C59.1568 36.1418 59.3696 35.8757 59.7687 35.8757C59.9284 35.8757 60.088 35.9023 60.2477 35.9556C60.4073 36.0088 60.6468 36.1152 60.9128 36.2216C61.8175 36.6207 62.8019 36.94 63.8396 37.1529C64.9039 37.3657 65.9416 37.4722 67.0058 37.4722C68.6821 37.4722 69.9858 37.1795 70.8905 36.5941C71.7951 36.0088 72.274 35.1573 72.274 34.0665C72.274 33.3215 72.0346 32.7095 71.5556 32.204C71.0767 31.6984 70.1721 31.2461 68.8683 30.8204L65.0103 29.6231C63.068 29.0111 61.6312 28.1065 60.7532 26.9092C59.8752 25.7384 59.4228 24.4347 59.4228 23.0511C59.4228 21.9336 59.6623 20.9492 60.1412 20.0977C60.6201 19.2463 61.2587 18.5013 62.0569 17.916C62.8551 17.304 63.7598 16.8517 64.8241 16.5324C65.8883 16.2131 67.0058 16.0801 68.1765 16.0801C68.7619 16.0801 69.3739 16.1067 69.9592 16.1865C70.5712 16.2663 71.1299 16.3728 71.6887 16.4792C72.2208 16.6122 72.7263 16.7453 73.2053 16.9049C73.6842 17.0645 74.0567 17.2242 74.3228 17.3838C74.6953 17.5967 74.9613 17.8095 75.121 18.049C75.2806 18.2619 75.3604 18.5545 75.3604 18.927V20.1776C75.3604 20.7363 75.1476 21.029 74.7485 21.029C74.5356 21.029 74.1897 20.9226 73.7374 20.7097C72.2208 20.0179 70.518 19.672 68.6289 19.672C67.1123 19.672 65.915 19.9115 65.0901 20.417C64.2653 20.9226 63.8396 21.6942 63.8396 22.7851C63.8396 23.5301 64.1057 24.1686 64.6378 24.6742C65.17 25.1797 66.1544 25.6852 67.5646 26.1375L71.3428 27.3349C73.2585 27.9468 74.6421 28.7983 75.4669 29.8891C76.2917 30.98 76.6908 32.2306 76.6908 33.6141C76.6908 34.7582 76.4513 35.7959 75.999 36.7006C75.5201 37.6052 74.8815 38.4034 74.0567 39.042C73.2319 39.7072 72.2474 40.1861 71.1033 40.532C69.906 40.9045 68.6555 41.0907 67.2985 41.0907Z" fill="#252F3E"/>
<path fill-rule="evenodd" clip-rule="evenodd" d="M72.3265 54.022C63.5728 60.4875 50.8546 63.9198 39.9191 63.9198C24.5934 63.9198 10.7844 58.2525 0.35441 48.8336C-0.470408 48.0886 0.274589 47.0775 1.25905 47.6629C12.5404 54.2082 26.4559 58.1727 40.8503 58.1727C50.5619 58.1727 61.2313 56.1505 71.0494 51.9998C72.5127 51.3346 73.7633 52.9577 72.3265 54.022Z" fill="#FF9900"/>
<path fill-rule="evenodd" clip-rule="evenodd" d="M75.9715 49.8713C74.854 48.4345 68.5747 49.1795 65.7278 49.5254C64.8764 49.6318 64.7433 48.8868 65.5149 48.3281C70.5171 44.816 78.7386 45.827 79.6965 46.9977C80.6543 48.1951 79.4304 56.4167 74.7476 60.3545C74.0292 60.9665 73.3374 60.6472 73.6567 59.849C74.721 57.2149 77.089 51.2815 75.9715 49.8713Z" fill="#FF9900"/>
</g>
<defs>
<clipPath id="clip0_75_476">
<rect width="80" height="80" rx="12" fill="white"/>
</clipPath>
</defs>
</svg>
