<svg width="80" height="80" viewBox="0 0 80 80" fill="none" xmlns="http://www.w3.org/2000/svg">
<path d="M78.6999 34.3675C76.7387 33.0462 71.5849 32.4819 67.838 33.4919C67.6359 29.7568 65.7117 26.6092 62.1912 23.8629L60.8879 22.9873L60.0194 24.3001C58.3121 26.894 57.5928 30.3497 57.8477 33.4909C58.0487 35.4262 58.7215 37.6019 60.0194 39.1805C55.1428 42.0115 50.648 41.3688 30.7415 41.3688H0.00689999C-0.0830167 45.8674 0.639491 54.5214 6.13816 61.5661C6.74537 62.3443 7.41181 63.097 8.13431 63.8222C12.6048 68.3027 19.3591 71.588 29.4594 71.5975C44.8679 71.6113 58.0698 63.2759 66.0999 43.121C68.7424 43.1644 75.7178 43.5953 79.1315 36.9931C79.2151 36.882 80 35.242 80 35.242L78.6989 34.3665L78.6999 34.3675ZM20.0647 30.2533H11.4221V38.9031H20.0647V30.2533ZM31.2302 30.2533H22.5876V38.9031H31.2302V30.2533ZM42.3958 30.2533H33.7532V38.9031H42.3958V30.2533ZM53.5613 30.2533H44.9187V38.9031H53.5613V30.2533ZM8.89914 30.2533H0.256551V38.9031H8.89914V30.2533ZM20.0647 19.3284H11.4221V27.9781H20.0647V19.3284ZM31.2302 19.3284H22.5876V27.9781H31.2302V19.3284ZM42.3958 19.3284H33.7532V27.9781H42.3958V19.3284ZM42.3958 8.40234H33.7532V17.0521H42.3958V8.40234Z" fill="#1D63ED"/>
</svg>
