<svg width="240" height="160" viewBox="0 0 240 160" fill="none" xmlns="http://www.w3.org/2000/svg">
<rect width="240" height="160" fill="#1B2D5A"/>
<path d="M42.2245 57.5908C37.9451 57.5908 34.8268 58.7353 32.9027 61.0243C30.9786 63.3133 30 66.6639 30 71.076V88.6912C30 93.1033 30.962 96.4539 32.8861 98.7429C34.8102 101.032 37.9285 102.176 42.2079 102.176C46.4873 102.176 49.589 101.032 51.4965 98.7429C53.404 96.4539 54.366 93.1033 54.366 88.6912V71.076C54.366 66.6639 53.404 63.3133 51.4965 61.0243C49.589 58.7353 46.4873 57.5908 42.2079 57.5908H42.2245ZM48.345 88.8736C48.345 91.7266 47.8474 93.8332 46.8854 95.1933C45.9067 96.5534 44.3476 97.2334 42.2079 97.2334C40.0682 97.2334 38.509 96.5534 37.5138 95.1933C36.5186 93.8332 36.021 91.7266 36.021 88.8736V70.8769C36.021 68.024 36.5186 65.9175 37.5138 64.5573C38.509 63.1972 40.0682 62.5171 42.2079 62.5171C44.3476 62.5171 45.9067 63.1972 46.8854 64.5573C47.864 65.9175 48.345 68.024 48.345 70.8769V88.8736Z" fill="white"/>
<path d="M69.8746 57.4419H63.8867V102.542H69.8746V57.4419Z" fill="white"/>
<path d="M121.492 81.1446H140.517V83.7653H124.66V88.5257H156.523V90.6323H124.66V102.392H163.49V97.6319H130.698V95.3927H162.511V83.7653H146.555V81.1446H165.58V76.2183H121.492V81.1446Z" fill="white"/>
<path d="M130.467 68.1735C128.377 68.7706 126.055 69.2351 123.484 69.5668L125.475 74.2443C130.152 73.7301 133.934 72.7515 136.837 71.3084C139.739 69.8653 141.979 68.1237 143.521 66.0835C145.08 68.1237 147.303 69.8653 150.206 71.3084C153.108 72.7515 156.89 73.7301 161.568 74.2443L163.558 69.5668C160.987 69.2351 158.665 68.7872 156.575 68.1735C154.485 67.5764 152.694 66.83 151.217 65.9343C149.741 65.0386 148.597 64.0102 147.784 62.8491C146.971 61.688 146.573 60.3611 146.573 58.9014V57.5911H140.436V58.9014C140.436 60.3611 140.038 61.6715 139.225 62.8491C138.412 64.0102 137.268 65.0386 135.792 65.9343C134.316 66.83 132.541 67.5764 130.434 68.1735H130.467Z" fill="white"/>
<path d="M204.012 88.3431H178.12V83.4333H172.082V102.558H209.983V83.4333H203.995V88.3431H204.012ZM204.012 97.7313H178.12V93.1533H204.012V97.7313Z" fill="white"/>
<path d="M182.317 71.7891C183.81 73.962 185.485 75.7202 187.36 77.0472C189.217 78.3741 191.125 79.2864 193.082 79.7674L195.852 75.3885C194.492 74.9904 193.165 74.443 191.888 73.7298C190.611 73.0166 189.466 72.154 188.488 71.1422C187.492 70.1304 186.696 68.9694 186.082 67.659C185.469 66.3486 185.154 64.889 185.154 63.3132V63.0146H194.409V58.0552H169.844V63.0146H179.133V63.4957C179.133 65.1212 178.867 66.5974 178.336 67.9409C177.806 69.2845 177.043 70.5285 176.081 71.6398C175.119 72.7511 173.924 73.763 172.548 74.6587C171.171 75.5543 169.628 76.3339 167.953 77.014L170.723 81.1441C173.161 80.1987 175.367 78.9381 177.341 77.3457C179.315 75.7534 180.99 73.8957 182.35 71.7559L182.317 71.7891Z" fill="white"/>
<path d="M210 57.4419H204.012V81.2441H210V57.4419Z" fill="white"/>
<path d="M76.8594 94.0158H108.64V102.541H114.511V89.2388H76.8594V94.0158Z" fill="white"/>
<path d="M75.5974 62.036H92.6652C92.4828 63.0146 92.2505 63.9932 91.952 64.9885C89.7127 64.9885 87.5233 65.2207 85.4334 65.6519C83.1776 66.1329 81.0379 67.0121 79.0806 68.3058C76.6424 69.8982 75.332 71.673 75.1496 73.5805C75.0169 74.924 75.4979 76.2675 76.4599 77.2793C77.4385 78.3077 78.9148 79.0044 80.6232 79.2698C81.1042 79.3361 81.6184 79.3859 82.1326 79.3859C82.9785 79.3859 83.8576 79.2863 84.7699 79.0873C85.6656 78.9049 86.5115 78.6063 87.3408 78.2746C88.2697 78.9215 89.4308 79.3693 90.7411 79.5683C91.2221 79.6347 91.7363 79.6845 92.2671 79.6845C92.4827 79.6845 92.715 79.6678 92.9472 79.6513V81.4427H74.2207V86.2695H117.512V81.4427H98.8687V78.8219H97.0441C97.5749 78.6395 98.1057 78.4239 98.6199 78.175C100.66 77.1964 102.451 75.7202 104.094 73.68C104.425 73.2653 104.74 72.8341 105.039 72.4028C106.731 73.1824 108.373 74.0947 109.866 75.0567H107.709V78.6395L117.661 78.6726L117.695 69.0025H113.847V71.7891C111.989 70.5119 109.849 69.384 107.212 68.3058C107.278 68.1234 107.378 67.9409 107.444 67.7419C108.124 65.851 108.589 63.9435 108.887 62.0692H118.491V57.4746H75.614V62.0692L75.5974 62.036ZM88.9 71.0759C87.7389 72.5521 86.5447 73.5805 85.2675 74.2108C84.604 74.5425 83.924 74.7748 83.2273 74.924C82.6468 75.0401 82.1326 75.0899 81.7677 75.0236C81.635 75.007 81.2867 74.924 81.071 74.7084C80.8886 74.5259 80.7891 74.1776 80.8222 73.8791C80.8886 73.1658 81.5686 72.3862 82.8458 71.5403C84.1562 70.6778 85.5495 70.0807 86.9925 69.7821C88.0043 69.5665 89.0493 69.4171 90.0942 69.3342C89.7293 69.9313 89.3313 70.5119 88.9 71.0593V71.0759ZM97.6412 65.4529C97.9564 64.3084 98.2052 63.1639 98.3876 62.036H103.131C102.866 63.4956 102.501 64.9553 101.97 66.4315C100.527 66.0168 99.0843 65.6851 97.6412 65.4529ZM93.7765 73.3151C94.6888 72.154 95.4684 70.91 96.0987 69.5996C97.3427 69.7987 98.6199 70.0972 99.897 70.4622C99.6814 70.7773 99.4658 71.0759 99.2336 71.3744C98.0393 72.8507 96.8285 73.8791 95.5181 74.5094C94.8381 74.8411 94.1248 75.0733 93.395 75.2226C92.7979 75.3387 92.2837 75.3719 91.9022 75.3221C92.5491 74.725 93.1628 74.0615 93.7599 73.2985L93.7765 73.3151Z" fill="white"/>
</svg>
