<svg width="80" height="80" viewBox="0 0 80 80" fill="none" xmlns="http://www.w3.org/2000/svg">
<path d="M29.498 61.8664C29.498 61.8664 26.4429 63.6442 31.6751 64.2441C38.0147 64.9683 41.2544 64.8645 48.2388 63.5442C48.2388 63.5442 50.0788 64.6946 52.6436 65.6919C36.981 72.402 17.1974 65.3028 29.498 61.8664ZM27.583 53.1086C27.583 53.1086 24.1555 55.6459 29.3922 56.1881C36.1645 56.8873 41.5114 56.9444 50.7684 55.1627C50.7684 55.1627 52.0457 56.4605 54.0574 57.1693C35.1243 62.7066 14.0366 57.6051 27.583 53.1086Z" fill="#0074BD"/>
<path d="M43.7202 38.2509C47.5815 42.6955 42.7076 46.6914 42.7076 46.6914C42.7076 46.6914 52.5061 41.6342 48.0071 35.2983C43.8035 29.3925 40.5811 26.4592 58.0273 16.3408C58.0273 16.3415 30.6416 23.1791 43.7202 38.2509Z" fill="#EA2D2E"/>
<path d="M64.4311 68.3458C64.4311 68.3458 66.6928 70.2108 61.9393 71.6521C52.9015 74.39 24.3154 75.2155 16.3761 71.7617C13.5235 70.5197 18.8749 68.7976 20.5585 68.4342C22.3139 68.0542 23.3162 68.1234 23.3162 68.1234C20.1419 65.8886 2.7995 72.5135 14.5085 74.4137C46.4382 79.5895 72.712 72.0828 64.4311 68.3458ZM30.9697 44.0337C30.9697 44.0337 16.4305 47.4874 25.8215 48.7429C29.7873 49.2736 37.6894 49.1518 45.0551 48.534C51.0731 48.0283 57.1122 46.9484 57.1122 46.9484C57.1122 46.9484 54.9921 47.8578 53.4565 48.905C38.6892 52.7895 10.1684 50.9802 18.3801 47.0093C25.3222 43.6517 30.9697 44.0337 30.9697 44.0337ZM57.0519 58.612C72.0621 50.8143 65.1213 43.3203 60.2769 44.3297C59.0925 44.5765 58.5612 44.7912 58.5612 44.7912C58.5612 44.7912 59.0021 44.0997 59.843 43.8023C69.4262 40.4344 76.7951 53.738 56.752 59.0074C56.752 59.0061 56.9821 58.7978 57.0519 58.612Z" fill="#0074BD"/>
<path d="M48.0028 -0.000488281C48.0028 -0.000488281 56.3139 8.31569 40.118 21.0995C27.1298 31.3576 37.1565 37.2051 40.1135 43.8889C32.5312 37.0487 26.9696 31.0262 30.7002 25.4217C36.1785 17.1965 51.3553 13.207 48.0028 -0.000488281Z" fill="#EA2D2E"/>
<path d="M32.4445 79.7486C46.8491 80.6696 68.9751 79.2359 69.4987 72.4194C69.4987 72.4194 68.4919 75.0035 57.5929 77.0537C45.2969 79.3686 30.1283 79.0988 21.1348 77.6138C21.1348 77.6145 22.9773 79.1398 32.4445 79.7486Z" fill="#0074BD"/>
</svg>
