<svg width="240" height="160" viewBox="0 0 240 160" fill="none" xmlns="http://www.w3.org/2000/svg">
<rect width="240" height="160" fill="white"/>
<rect width="240" height="160" fill="#C6075D" fill-opacity="0.15"/>
<path d="M116.666 46.6666V53.3333M96.666 46.6666V53.3333M96.666 50H93.3327C91.5646 50 89.8689 50.7023 88.6186 51.9526C87.3684 53.2028 86.666 54.8985 86.666 56.6666V70C86.666 75.3043 88.7732 80.3914 92.5239 84.1421C96.2746 87.8928 101.362 90 106.666 90M106.666 90C111.97 90 117.057 87.8928 120.808 84.1421C124.559 80.3914 126.666 75.3043 126.666 70V56.6666C126.666 54.8985 125.964 53.2028 124.713 51.9526C123.463 50.7023 121.767 50 119.999 50H116.666M106.666 90C106.666 95.3043 108.773 100.391 112.524 104.142C116.275 107.893 121.362 110 126.666 110C131.97 110 137.057 107.893 140.808 104.142C144.559 100.391 146.666 95.3043 146.666 90V80M146.666 80C150.348 80 153.333 77.0152 153.333 73.3333C153.333 69.6514 150.348 66.6666 146.666 66.6666C142.984 66.6666 139.999 69.6514 139.999 73.3333C139.999 77.0152 142.984 80 146.666 80Z" stroke="#C6075D" stroke-width="6.66667" stroke-linecap="round" stroke-linejoin="round"/>
</svg>
