<svg width="60" height="60" viewBox="0 0 60 60" fill="none" xmlns="http://www.w3.org/2000/svg">
<path d="M50.625 0H9.375C4.19733 0 0 4.19733 0 9.375V50.625C0 55.8027 4.19733 60 9.375 60H50.625C55.8027 60 60 55.8027 60 50.625V9.375C60 4.19733 55.8027 0 50.625 0Z" fill="#231E1B"/>
<path fill-rule="evenodd" clip-rule="evenodd" d="M29.9541 15.36C21.6972 15.36 15 22.0572 15 30.3141C15 36.9196 19.3119 42.5159 25.1835 44.5343C25.9174 44.626 26.1927 44.1673 26.1927 43.8004C26.1927 43.4334 26.1927 42.5159 26.1927 41.2315C22.0642 42.149 21.1468 39.2132 21.1468 39.2132C20.5046 37.4701 19.4954 37.0114 19.4954 37.0114C18.1193 36.0939 19.5872 36.0939 19.5872 36.0939C21.055 36.1857 21.8807 37.6536 21.8807 37.6536C23.2569 39.9471 25.367 39.3049 26.1927 38.938C26.2844 37.9288 26.7431 37.2866 27.1101 36.9196C23.8073 36.5526 20.3211 35.2682 20.3211 29.4884C20.3211 27.837 20.8716 26.5526 21.8807 25.4517C21.789 25.1765 21.2385 23.6169 22.0642 21.5985C22.0642 21.5985 23.3486 21.2315 26.1927 23.1582C27.3853 22.7912 28.6697 22.6994 29.9541 22.6994C31.2385 22.6994 32.5229 22.8829 33.7156 23.1582C36.5596 21.2315 37.844 21.5985 37.844 21.5985C38.6697 23.6169 38.1193 25.1765 38.0275 25.5435C38.945 26.5526 39.5872 27.9288 39.5872 29.5802C39.5872 35.36 36.1009 36.5526 32.7982 36.9196C33.3486 37.3783 33.8073 38.2958 33.8073 39.6719C33.8073 41.6903 33.8073 43.2499 33.8073 43.8004C33.8073 44.1673 34.0826 44.626 34.8165 44.5343C40.7798 42.5159 45 36.9196 45 30.3141C44.9083 22.0572 38.211 15.36 29.9541 15.36Z" fill="white"/>
</svg>
