<svg width="60" height="60" viewBox="0 0 60 60" fill="none" xmlns="http://www.w3.org/2000/svg">
<path d="M50.625 0H9.375C4.19733 0 0 4.19733 0 9.375V50.625C0 55.8027 4.19733 60 9.375 60H50.625C55.8027 60 60 55.8027 60 50.625V9.375C60 4.19733 55.8027 0 50.625 0Z" fill="#2867B2"/>
<path d="M21.75 45H15.375V24.9375H21.75V45ZM18.5625 22.125C16.5 22.125 15 20.625 15 18.5625C15 16.5 16.6875 15 18.5625 15C20.625 15 22.125 16.5 22.125 18.5625C22.125 20.625 20.625 22.125 18.5625 22.125ZM45 45H38.625V34.125C38.625 30.9375 37.3125 30 35.4375 30C33.5625 30 31.6875 31.5 31.6875 34.3125V45H25.3125V24.9375H31.3125V27.75C31.875 26.4375 34.125 24.375 37.3125 24.375C40.875 24.375 44.625 26.4375 44.625 32.625V45H45Z" fill="white"/>
</svg>
